<svg height="448pt" viewBox="-48 0 448 448" width="448pt" xmlns="http://www.w3.org/2000/svg"><path d="m0 440c0 4.417969 3.582031 8 8 8h336c4.417969 0 8-3.582031 8-8v-432c0-4.417969-3.582031-8-8-8h-240v72c0 13.253906-10.746094 24-24 24h-80zm120-306.503906c0-2.9375 1.609375-5.636719 4.191406-7.035156 2.585938-1.398438 5.726563-1.265626 8.183594.339843l138.503906 90.503907c2.261719 1.476562 3.625 3.996093 3.625 6.695312s-1.363281 5.21875-3.625 6.695312l-138.503906 90.503907c-1.296875.855469-2.820312 1.308593-4.375 1.304687-4.417969 0-8-3.582031-8-8zm0 0"/><path d="m136 148.28125v151.4375l115.878906-75.71875zm0 0"/><path d="m88 72v-61.726562l-75.535156 69.726562h67.535156c4.417969 0 8-3.582031 8-8zm0 0"/></svg>